<svg xmlns="http://www.w3.org/2000/svg" viewBox="34 24 310 376" width="310" height="376">
<g stroke="#F4F4F4" stroke-width="7" stroke-linecap="round" stroke-linejoin="round" fill="none">

<path d="M268 62 C 272 50 276 42 281 34"/>
<path d="M296 78 C 306 70 314 64 323 58"/>
<path d="M304 108 C 314 107 324 107 334 108"/>

<g transform="rotate(-9 215 185)">
  <path d="M150 74 C 186 70 228 70 262 76 C 266 140 266 210 262 286
           L 250 274 L 238 288 L 226 274 L 214 288 L 202 274 L 190 288 L 178 274 L 166 288 L 156 276
           C 152 210 150 140 150 74 Z" fill="#2A2A2A"/>
  <path d="M172 108 C 184 102 196 112 208 106 C 220 100 232 110 242 106"/>
  <path d="M172 134 C 182 129 192 138 202 133 C 210 129 216 136 222 133"/>
  <path d="M172 172 L 244 172" stroke-dasharray="2 12"/>
  <path d="M196 208 C 206 202 216 212 226 206 C 232 202 238 208 244 205"/>
</g>

<path d="M44 392 C 58 360 74 332 92 306 C 112 312 132 324 150 340 C 138 362 124 382 112 398 Z" fill="#F4F4F4"/>
<path d="M96 304 C 104 280 122 262 146 256 C 160 252 172 254 182 260
         C 196 262 200 276 188 282 C 200 286 202 300 188 304
         C 198 310 196 322 182 324 C 188 332 182 344 168 342
         C 158 352 142 350 132 342 C 118 332 104 318 96 304 Z" fill="#05A9F4"/>
<path d="M146 256 C 150 240 162 228 176 226 C 186 226 190 236 182 244 C 176 250 168 254 160 258" fill="#05A9F4"/>
<path d="M168 284 C 174 284 178 283 182 282" stroke-width="5"/>
<path d="M166 306 C 172 306 177 305 182 304" stroke-width="5"/>
</g>
</svg>
